<svg id="Layer_1" data-name="Layer 1" xmlns="http://www.w3.org/2000/svg" viewBox="0 0 144 144"><defs><style>.cls-1{fill:#2cb34a;}.cls-2,.cls-3,.cls-4,.cls-5{fill:#fff;}.cls-3,.cls-4,.cls-5{stroke:#fff;stroke-miterlimit:10;}.cls-3{stroke-width:4px;}.cls-4{stroke-width:3px;}.cls-5{stroke-width:2px;}</style></defs><title>Benefits 101</title><circle class="cls-1" cx="72" cy="71.94055" r="70.92"/><path class="cls-2" d="M75.18327,90.60359a18.53963,18.53963,0,1,1,18.53963-18.54A18.5608,18.5608,0,0,1,75.18327,90.60359Zm0-32.2889A13.74927,13.74927,0,1,0,88.93254,72.06357,13.765,13.765,0,0,0,75.18327,58.31469Z"/><path class="cls-2" d="M75.18321,41.88243a13.14768,13.14768,0,1,1,13.14768-13.148A13.1627,13.1627,0,0,1,75.18321,41.88243Zm0-22.89821a9.75052,9.75052,0,1,0,9.75052,9.75025A9.76171,9.76171,0,0,0,75.18321,18.98423Z"/><path class="cls-2" d="M105.95167,120.11825a11.01715,11.01715,0,1,1,11.01715-11.01738A11.02973,11.02973,0,0,1,105.95167,120.11825Zm0-19.18763a8.17048,8.17048,0,1,0,8.17048,8.17025A8.17985,8.17985,0,0,0,105.95167,100.93062Z"/><path class="cls-2" d="M114.2999,65.68307a8.34817,8.34817,0,1,1,8.34817-8.34834A8.3577,8.3577,0,0,1,114.2999,65.68307Zm0-14.53929a6.19113,6.19113,0,1,0,6.19113,6.191A6.19823,6.19823,0,0,0,114.2999,51.14378Z"/><path class="cls-2" d="M39.29941,59.38839a8.34817,8.34817,0,1,1,8.34817-8.34834A8.3577,8.3577,0,0,1,39.29941,59.38839Zm0-14.53929a6.19113,6.19113,0,1,0,6.19113,6.191A6.19823,6.19823,0,0,0,39.29941,44.8491Z"/><path class="cls-2" d="M66.42489,121.07248a5.98569,5.98569,0,1,1,5.98569-5.98581A5.99252,5.99252,0,0,1,66.42489,121.07248Zm0-10.42477a4.43908,4.43908,0,1,0,4.43908,4.439A4.44417,4.44417,0,0,0,66.42489,110.64771Z"/><path class="cls-2" d="M34.4999,101.26717a13.14768,13.14768,0,1,1,13.14768-13.148A13.1627,13.1627,0,0,1,34.4999,101.26717Zm0-22.89821a9.75052,9.75052,0,1,0,9.75052,9.75025A9.76171,9.76171,0,0,0,34.4999,78.369Z"/><line class="cls-3" x1="84.09405" y1="85.99719" x2="99.74075" y2="101.26717"/><line class="cls-3" x1="75.18307" y1="40.5616" x2="75.18307" y2="55.90739"/><line class="cls-4" x1="107.56409" y1="60.34564" x2="90.71381" y2="65.68307"/><line class="cls-4" x1="44.764" y1="55.50749" x2="60.43907" y2="63.65376"/><line class="cls-3" x1="44.37552" y1="82.68731" x2="60.43907" y2="79.67833"/><line class="cls-5" x1="67.31899" y1="110.06903" x2="71.15544" y2="88.11949"/></svg>