<?xml version="1.0" ?><svg width="512px" height="512px" viewBox="0 0 512 512" id="Layer_1" style="enable-background:new 0 0 512 512;" version="1.1" xml:space="preserve" xmlns="http://www.w3.org/2000/svg" xmlns:xlink="http://www.w3.org/1999/xlink"><style type="text/css">
	.st0{fill:#D3D9D9;}
	.st1{fill:#A8B2B4;}
	.st2{fill:#EDEDED;}
	.st3{fill:#D4F0FC;}
	.st4{fill:#FFFFFF;}
	.st5{fill:#7C8B8E;}
	.st6{fill:#FB8A8A;}
	.st7{fill:#FCB1B1;}
	.st8{fill:#F96363;}
	.st9{fill:#7BDE9E;}
	.st10{fill:#A7E9BF;}
	.st11{fill:#50D27E;}
	.st12{fill:#333333;}
</style><g><g><g><g><g><g><g><g><path class="st0" d="M38.7,412.6v31.1c0,7.7,6.2,14,14,14h425.7c7.7,0,14-6.2,14-14v-31.1H38.7z"/></g></g></g><g><g><g><path class="st1" d="M444.9,457.6h33.6c7.7,0,13.9-6.2,13.9-13.9v-31.1h-33.5v31.1C458.9,451.3,452.6,457.6,444.9,457.6z"/></g></g></g><g><g><g><path class="st2" d="M86.2,457.6H52.6c-7.7,0-13.9-6.2-13.9-13.9v-31.1h33.5v31.1C72.2,451.3,78.5,457.6,86.2,457.6z"/></g></g></g><g><g><g><path class="st3" d="M492.4,122.6v289.9H38.8V122.6c0-7.7,6.2-14,13.9-14h425.7C486.1,108.6,492.4,114.9,492.4,122.6z"/></g></g></g><polygon class="st4" points="333.1,507.8 198,507.8 220.7,457.6 310.4,457.6      "/></g></g><g><g><path class="st5" d="M249.9,435.1c0,3.6-2.9,6.4-6.4,6.4c-3.5,0-6.4-2.9-6.4-6.4c0-3.5,2.9-6.4,6.4-6.4       C247,428.6,249.9,431.6,249.9,435.1z"/></g><g><path class="st5" d="M272,435.1c0,3.6-2.9,6.4-6.4,6.4c-3.5,0-6.4-2.9-6.4-6.4c0-3.5,2.9-6.4,6.4-6.4       C269.1,428.6,272,431.6,272,435.1z"/></g><g><path class="st5" d="M294.1,435.1c0,3.6-2.9,6.4-6.4,6.4c-3.5,0-6.4-2.9-6.4-6.4c0-3.5,2.9-6.4,6.4-6.4       C291.2,428.6,294.1,431.6,294.1,435.1z"/></g></g></g><g><g><g><g><rect class="st4" height="355.4" width="369.1" x="81" y="57.2"/></g></g></g><g><g><g><rect class="st2" height="355.4" width="25.7" x="424.4" y="57.2"/></g></g></g><g><g><g><path class="st6" d="M450.1,13.8v43.4H81V13.7c0-5.5,4.4-9.9,9.9-9.9h349.3C445.7,3.8,450.1,8.2,450.1,13.8z"/></g></g></g><g><g><g><path class="st7" d="M116.8,3.8c-5.5,0-9.9,4.4-9.9,9.9v43.4H81V13.7c0-5.5,4.4-9.9,9.9-9.9H116.8z"/></g></g></g><g><g><g><path class="st8" d="M450.1,13.8v43.4h-25.8V13.8c0-5.5-4.4-10-9.9-10h25.8C445.7,3.8,450.1,8.2,450.1,13.8z"/></g></g></g></g></g><g><g><g><path class="st9" d="M186.9,248.7c-2.7,0-5.5-0.9-7.8-2.7l-67.4-52.4c-3.1-2.4-4.9-6.2-4.9-10.1s1.8-7.7,4.9-10.1l67.4-52.4      c5.6-4.3,13.6-3.3,18,2.2c4.3,5.6,3.3,13.6-2.2,18l-54.4,42.3l54.4,42.3c5.6,4.3,6.6,12.4,2.2,18      C194.5,247,190.8,248.7,186.9,248.7z"/></g></g><g><g><path class="st9" d="M344.2,248.7c-3.8,0-7.6-1.7-10.1-4.9c-4.3-5.6-3.3-13.6,2.2-18l54.4-42.3l-54.4-42.3      c-5.6-4.3-6.6-12.4-2.2-18c4.3-5.6,12.4-6.6,18-2.2l67.4,52.4c3.1,2.4,4.9,6.2,4.9,10.1s-1.8,7.7-4.9,10.1L352,246      C349.7,247.8,346.9,248.7,344.2,248.7z"/></g></g><g><g><path class="st9" d="M236.4,248.7c-2.1,0-4.2-0.5-6.2-1.6c-6.2-3.4-8.4-11.2-5-17.4l58.3-104.9c3.4-6.2,11.2-8.4,17.4-5      c6.2,3.4,8.4,11.2,5,17.4l-58.3,104.9C245.3,246.3,240.9,248.7,236.4,248.7z"/></g></g></g><g><g><g><path class="st9" d="M186.9,248.7c-2.7,0-5.5-0.9-7.8-2.7l-67.4-52.4c-3.1-2.4-4.9-6.2-4.9-10.1s1.8-7.7,4.9-10.1l67.4-52.4      c5.6-4.3,13.6-3.3,18,2.2c4.3,5.6,3.3,13.6-2.2,18l-54.4,42.3l54.4,42.3c5.6,4.3,6.6,12.4,2.2,18      C194.5,247,190.8,248.7,186.9,248.7z"/></g></g><g><g><path class="st9" d="M344.2,248.7c-3.8,0-7.6-1.7-10.1-4.9c-4.3-5.6-3.3-13.6,2.2-18l54.4-42.3l-54.4-42.3      c-5.6-4.3-6.6-12.4-2.2-18c4.3-5.6,12.4-6.6,18-2.2l67.4,52.4c3.1,2.4,4.9,6.2,4.9,10.1s-1.8,7.7-4.9,10.1L352,246      C349.7,247.8,346.9,248.7,344.2,248.7z"/></g></g><g><g><path class="st9" d="M236.4,248.7c-2.1,0-4.2-0.5-6.2-1.6c-6.2-3.4-8.4-11.2-5-17.4l58.3-104.9c3.4-6.2,11.2-8.4,17.4-5      c6.2,3.4,8.4,11.2,5,17.4l-58.3,104.9C245.3,246.3,240.9,248.7,236.4,248.7z"/></g></g></g><g><g><g><path class="st10" d="M197.2,138.7c0-0.1-0.1-0.1-0.1-0.2c-4.3-5.6-12.4-6.6-18-2.3l-67.4,52.4c-0.9,0.7-1.7,1.6-2.4,2.5      c-1.6-2.2-2.6-4.9-2.6-7.7c0-3.9,1.8-7.6,4.9-10.1l67.4-52.4c5.6-4.4,13.6-3.3,18,2.2C200.7,127.8,200.6,134.2,197.2,138.7z"/></g></g><g><g><path class="st10" d="M424.4,183.4c0,2.8-0.9,5.5-2.6,7.7c-0.7-0.9-1.5-1.8-2.4-2.5l-67.4-52.4c-5.6-4.3-13.6-3.3-18,2.3      c0,0.1-0.1,0.1-0.1,0.2c-3.4-4.5-3.5-10.8,0.1-15.5c4.3-5.6,12.4-6.6,18-2.2l67.4,52.4C422.6,175.8,424.4,179.5,424.4,183.4z"/></g></g><g><g><path class="st9" d="M236.4,248.7c-2.1,0-4.2-0.5-6.2-1.6c-6.2-3.4-8.4-11.2-5-17.4l58.3-104.9c3.4-6.2,11.2-8.4,17.4-5      c6.2,3.4,8.4,11.2,5,17.4l-58.3,104.9C245.3,246.3,240.9,248.7,236.4,248.7z"/></g></g><g><g><path class="st10" d="M300.9,119.8c-6.2-3.4-14-1.2-17.4,5l-8.7,15.6c0.3,0.3,0.5,0.7,0.8,1l0.7-1.3c3.4-6.2,11.2-8.4,17.4-5      c4.5,2.5,6.9,7.3,6.6,12.1l5.6-10C309.3,131.1,307.1,123.3,300.9,119.8z"/></g></g><g><g><path class="st11" d="M230.2,247c6.2,3.4,14,1.2,17.4-5l8.7-15.6c-0.3-0.3-0.5-0.7-0.8-1l-0.7,1.3c-3.4,6.2-11.2,8.4-17.4,5      c-4.5-2.5-6.9-7.3-6.6-12.1l-5.6,10C221.8,235.8,224,243.6,230.2,247z"/></g></g></g><g><g><g><path class="st11" d="M197.1,243.7c-2.5,3.2-6.3,4.9-10.1,4.9c-2.7,0-5.5-0.9-7.8-2.7l-67.4-52.4c-3.1-2.4-4.9-6.1-4.9-10.1      c0-2.8,0.9-5.4,2.6-7.6c0.7,0.9,1.5,1.7,2.4,2.4l67.4,52.4c2.3,1.8,5.1,2.7,7.8,2.7c3.8,0,7.6-1.7,10.1-5c0-0.1,0.1-0.1,0.1-0.2      C200.6,232.7,200.7,239.1,197.1,243.7z"/></g></g><g><g><path class="st11" d="M424.4,183.5c0,4-1.8,7.7-5,10.1L352.1,246c-2.4,1.8-5.1,2.7-7.8,2.7c-3.8,0-7.6-1.7-10.1-4.9      c-3.6-4.7-3.5-11-0.1-15.5c0,0.1,0.1,0.1,0.1,0.2c2.5,3.2,6.3,5,10.1,5c2.7,0,5.5-0.9,7.8-2.7l67.4-52.4      c0.9-0.7,1.7-1.5,2.4-2.4C423.5,178,424.4,180.7,424.4,183.5z"/></g></g></g><g><path class="st12" d="M496.4,122.6c0-9.9-8.1-18-18-18h-24.3V57.2V13.8c0-7.7-6.2-14-13.9-14H90.9C83.3-0.2,77,6.1,77,13.7v43.4    v47.5H52.7c-9.9,0-17.9,8.1-17.9,18c0,53.2,0,253.1,0,321c0,9.9,8.1,18,18,18h161.8l-19.1,42.2h-11.6c-2.2,0-4,1.8-4,4s1.8,4,4,4    c31.3,0,132.1,0,163.4,0c2.2,0,4-1.8,4-4s-1.8-4-4-4h-11.6l-19.1-42.2h161.8c9.9,0,18-8.1,18-18    C496.4,376.4,496.4,175.8,496.4,122.6z M446.1,408.6H85V61.2h361.1V408.6z M478.4,112.6c5.4,0,10,4.6,10,10v285.9h-34.3V112.6    H478.4z M85,13.7c0-3.3,2.7-5.9,5.9-5.9h349.3c3.3,0,5.9,2.7,5.9,6v39.4H85V13.7z M42.7,122.6c0-5.5,4.4-10,9.9-10H77v295.9H42.7    V122.6z M326.9,503.8H204.2l19.1-42.2h84.5L326.9,503.8z M488.4,443.6c0,5.5-4.5,10-10,10c-447.2-0.1,23.9,0-425.7,0    c-5.5,0-10-4.5-10-10v-27.1c93.9,0-85.9,0,445.7,0V443.6z"/><path class="st12" d="M117.2,26.5h-6.7c-2.2,0-4,1.8-4,4s1.8,4,4,4h6.7c2.2,0,4-1.8,4-4S119.4,26.5,117.2,26.5z"/><path class="st12" d="M149.7,26.5H143c-2.2,0-4,1.8-4,4s1.8,4,4,4h6.7c2.2,0,4-1.8,4-4S151.9,26.5,149.7,26.5z"/><path class="st12" d="M182.1,26.5h-6.7c-2.2,0-4,1.8-4,4s1.8,4,4,4h6.7c2.2,0,4-1.8,4-4S184.3,26.5,182.1,26.5z"/><path class="st12" d="M420.6,26.5H237.5c-2.2,0-4,1.8-4,4s1.8,4,4,4h183.1c2.2,0,4-1.8,4-4S422.8,26.5,420.6,26.5z"/><path class="st12" d="M109.2,196.7l67.4,52.4c7.2,5.6,17.8,4.5,23.6-2.9c5.7-7.3,4.4-17.8-2.9-23.6l-50.4-39.2l50.4-39.2    c7.3-5.7,8.7-16.2,2.9-23.6c-5.7-7.3-16.2-8.7-23.6-2.9l-67.4,52.4c-4.1,3.2-6.5,8-6.5,13.3C102.7,188.7,105.1,193.5,109.2,196.7z     M114.1,176.5l67.4-52.4c3.8-3,9.4-2.3,12.3,1.5c3,3.9,2.3,9.4-1.5,12.3l-54.4,42.3c-1,0.8-1.5,1.9-1.5,3.2s0.6,2.4,1.5,3.2    l54.4,42.3c3.8,3,4.5,8.5,1.5,12.3c-2.9,3.7-8.6,4.4-12.3,1.5l-67.4-52.4c-2.2-1.7-3.4-4.2-3.4-6.9S112,178.2,114.1,176.5z"/><path class="st12" d="M333.9,144.3l50.4,39.2l-50.4,39.2c-7.3,5.7-8.6,16.3-2.9,23.6c5.7,7.4,16.3,8.6,23.6,2.9l67.4-52.4    c8.6-6.7,8.7-19.8,0-26.5l-67.4-52.4c-7.4-5.8-17.9-4.3-23.6,2.9C325.3,128,326.6,138.6,333.9,144.3z M337.3,125.6    c2.9-3.8,8.5-4.6,12.3-1.5l67.4,52.4c4.5,3.5,4.5,10.4,0,13.9l-67.4,52.4c-3.7,2.9-9.5,2.2-12.3-1.5c-3-3.8-2.3-9.4,1.5-12.3    l54.4-42.3c1-0.8,1.5-1.9,1.5-3.2s-0.6-2.4-1.5-3.2L338.8,138C335,135,334.3,129.4,337.3,125.6z"/><path class="st12" d="M228.2,250.5c8.3,4.6,18.4,1.4,22.8-6.5l58.3-104.9c4.5-8.1,1.6-18.3-6.5-22.8c-8.2-4.5-18.4-1.6-22.8,6.5    l-58.3,104.9C217.2,235.8,220.1,246,228.2,250.5z M228.7,231.6L287,126.7c2.4-4.3,7.7-5.8,12-3.4c4.2,2.4,5.8,7.7,3.4,12    l-58.3,104.9c-2.3,4.1-7.8,5.7-12,3.4C227.9,241.2,226.4,235.8,228.7,231.6z"/><path class="st12" d="M392.4,367.6H138.7c-2.2,0-4,1.8-4,4s1.8,4,4,4h253.7c2.2,0,4-1.8,4-4S394.6,367.6,392.4,367.6z"/><path class="st12" d="M363.9,293.6c2.2,0,4-1.8,4-4s-1.8-4-4-4H167.2c-2.2,0-4,1.8-4,4s1.8,4,4,4H363.9z"/><path class="st12" d="M412,326.6H119.2c-2.2,0-4,1.8-4,4s1.8,4,4,4H412c2.2,0,4-1.8,4-4S414.2,326.6,412,326.6z"/></g></g></svg>